<svg version="1" xmlns="http://www.w3.org/2000/svg" width="552" height="552" viewBox="0 0 414.000000 414.000000"><path d="M0 197v179h21v21h393V42h-23V18H0v179zM149.5 92.8c16.9 4.6 29.6 13.1 37.2 24.9 8.1 12.4 10.9 24.8 10.1 43.6-1.2 26.2-13 44.4-36.4 55.8-13.5 6.6-23.9 8.8-45.7 9.6l-16.8.6.3 14.6.3 14.6 14 .5 14 .5-.4 17.5c-.2 9.6-.5 17.8-.8 18.2-.2.5-21.1.8-46.4.8H33l.2-17.8.3-17.7 8.5-1 8.5-1 .3-64.8.2-64.7H35V89.8l53.3.4c50.9.4 53.5.5 61.2 2.6zm167.5-.5c21 5.3 34.1 14.8 42.3 30.4 5.5 10.6 7.1 17.7 7.1 33.3 0 14.4-1.3 21.8-5.8 31.5-7.7 16.6-24.6 29.7-45.8 35.5-8 2.1-25.5 4-38.6 4h-8.3l.3 14.7.3 14.8 13.8.3 13.7.3-.2 18.2-.3 18.2-46.2.3-46.3.2v-35.8l8.5-.7 8.5-.7.2-57.4c.1-31.6.3-60.7.3-64.7v-7.2l-8.2-.3-8.3-.3v-37l53.3.3c45.6.3 54.1.6 59.7 2.1z"/><path d="M98.8 130.5c-1.1 1.2-1 55.3.1 55.9.5.3 7.2.2 14.9-.3 12-.8 14.9-1.3 20.1-3.7 10.9-4.8 14.3-11 14.3-25.4-.1-15.7-2.9-20.3-15-24-6.9-2.2-33-4-34.4-2.5zM268 158.5c0 26.5.1 28.5 1.8 28.5 12.3-.3 27.5-2.1 32.1-3.9 12.1-4.6 16.8-13.1 15.8-28.7-.7-12.8-3.7-17.7-12.6-20.9-5.4-1.9-18.9-3.5-29.3-3.5H268v28.5z"/></svg>